# AST/ASF file generated using VICON BodyLanguage
# -----------------------------------------------
:version 1.10
:name VICON
:units
  mass 1.0
  length 0.45
  angle deg
:documentation
   .ast/.asf automatically generated from VICON data using
   VICON BodyBuilder and BodyLanguage model FoxedUp or BRILLIANT.MOD
:root
   order TX TY TZ RX RY RZ
   axis XYZ
   position 0 0 0  
   orientation 0 0 0 
:bonedata
  begin
     id 1 
     name lhipjoint
     direction 0.710188 -0.616876 0.339259 
     length 2.5669 
     axis 0 0 0  XYZ
  end
  begin
     id 2 
     name lfemur
     direction 0.34202 -0.939693 0  
     length 7.12796  
     axis 0 0 20  XYZ
    dof rx ry rz
    limits (-160.0 20.0)
           (-70.0 70.0)
           (-60.0 70.0)
  end
  begin
     id 3 
     name ltibia
     direction 0.34202 -0.939693 0   
     length 7.58108   
     axis 0 0 20   XYZ
    dof rx
    limits (-10.0 170.0)
  end
  begin
     id 4 
     name lfoot
     direction 0.0669471 -0.183936 0.980656   
     length 2.17365   
     axis -90 7.62852e-016 20   XYZ
    dof rx rz
    limits (-45.0 90.0)
           (-70.0 20.0)
  end
  begin
     id 5 
     name ltoes
     direction 1.53508e-011 -4.21705e-011 1   
     length 1.09427   
     axis -90 7.62852e-016 20   XYZ
    dof rx
    limits (-90.0 20.0)
  end
  begin
     id 6 
     name rhipjoint
     direction -0.700191 -0.625589 0.34405   
     length 2.53115  
     axis 0 0 0  XYZ 
  end
  begin
     id 7 
     name rfemur
     direction -0.34202 -0.939693 0   
     length 7.33006   
     axis 0 0 -20   XYZ
    dof rx ry rz
    limits (-160.0 20.0)
           (-70.0 70.0)
           (-70.0 60.0)
  end
  begin
     id 8 
     name rtibia
     direction -0.34202 -0.939693 0   
     length 7.64926   
     axis 0 0 -20   XYZ
    dof rx
    limits (-10.0 170.0)
 end
 begin
     id 9 
     name rfoot
     direction -0.0688927 -0.189281 0.979503   
     length 2.20493  
     axis -90 -7.62852e-016 -20   XYZ
    dof rx rz
    limits (-45.0 90.0)
           (-20.0 70.0)
  end
  begin
     id 10 
     name rtoes
     direction -1.53567e-011 -4.21933e-011 1   
     length 1.10919   
     axis -90 -7.62852e-016 -20   XYZ
    dof rx
    limits (-90.0 20.0)
  end
  begin
     id 11 
     name lowerback
     direction -0.0167868 0.989873 -0.140959   
     length 2.14596   
     axis 0 0 0   XYZ
    dof rx ry rz
    limits (-20.0 45.0)
           (-30.0 30.0)
           (-30.0 30.0)
  end
  begin
     id 12 
     name upperback
     direction 0.0129109 0.998033 0.0613525   
     length 2.10457   
     axis 0 0 0   XYZ
    dof rx ry rz
    limits (-20.0 45.0)
           (-30.0 30.0)
           (-30.0 30.0)
  end
  begin
     id 13 
     name thorax
     direction 0.0177047 0.991119 0.131797   
     length 2.17652   
     axis 0 0 0   XYZ
    dof rx ry rz
    limits (-20.0 45.0)
           (-30.0 30.0)
           (-30.0 30.0)
  end
  begin
     id 14 
     name lowerneck
     direction -0.0336893 0.997548 0.0613464   
     length 1.8912   
     axis 0 0 0   XYZ
    dof rx ry rz
    limits (-20.0 45.0)
           (-30.0 30.0)
           (-30.0 30.0)
  end
  begin
     id 15 
     name upperneck
     direction 0.0435909 0.997179 -0.0611028   
     length 1.8829   
     axis 0 0 0   XYZ
    dof rx ry rz
    limits (-20.0 45.0)
           (-30.0 30.0)
           (-30.0 30.0)
  end
  begin
     id 16
     name head
     direction 0.0175076 0.999444 -0.0283782  
     length 1.93197  
     axis 0 0 0   XYZ
    dof rx ry rz
    limits (-20.0 45.0)
           (-30.0 30.0)
           (-30.0 30.0)
  end
  begin
     id 17 
     name lclavicle
     direction 0.919164 0.389875 0.0559876  
     length 3.60004  
     axis 0 0 0   XYZ
    dof ry rz
    limits (-20.0 10.0)
           (0.0 20.0)
  end
  begin
     id 18 
     name lhumerus
     direction 1 -4.48958e-011 6.89191e-027   
     length 5.43301   
     axis 180 -30 -90   XYZ
    dof rx ry rz
    limits (-60.0 90.0)
           (-90.0 90.0)
           (-90.0 90.0)
  end
  begin
     id 19
     name lradius
     direction 1 -4.4897e-011 3.24727e-027   
     length 3.15936   
     axis 180 -30 -90   XYZ
    dof rx
    limits (-10.0 170.0)
  end
  begin
     id 20
     name lwrist
     direction 1 -4.4897e-011 9.00228e-027   
     length 1.57968   
     axis -6.29373e-015 90 90   XYZ
    dof ry
    limits (-180.0 0.0)
 end
  begin
     id 21 
     name lhand
     direction 1 -4.48968e-011 1.80042e-026   
     length 0.712827   
     axis -1.14882e-014 90 90   XYZ
    dof rx rz
    limits (-90.0 90.0)
           (-45.0 45.0)
  end
  begin
     id 22 
     name lfingers
     direction 1 -4.49019e-011 3.60267e-026   
     length 0.574699   
     axis -2.29769e-014 90 90   XYZ
    dof rx
    limits (0.0 90.0)
  end
  begin
     id 23
     name lthumb
     direction 0.707107 -6.3498e-011 0.707107   
     length 0.825157   
     axis -90 45 5.37419e-014   XYZ
    dof rx rz
    limits (-45.0 45.0)
           (-45.0 45.0)
  end
  begin
     id 24 
     name rclavicle
     direction -0.890334 0.455305 -0.00132111   
     length 3.51494  
     axis 0 0 0   XYZ 
    dof ry rz
    limits (-10.0 20.0)
           (-20.0 0.0)
  end
  begin
     id 25 
     name rhumerus
     direction -1 -4.48967e-011 5.07175e-028  
     length 5.34194   
     axis 180 30 90   XYZ
    dof rx ry rz
    limits (-90.0 60.0)
           (-90.0 90.0)
           (-90.0 90.0)
  end
  begin
     id 26 
     name rradius
     direction -1 -4.48955e-011 3.30467e-027   
     length 3.19351   
     axis 180 30 90   XYZ
    dof rx
    limits (-10.0 170.0)
  end
  begin
     id 27 
     name rwrist
     direction -1 -4.48968e-011 9.00208e-027   
     length 1.59676   
     axis -6.29373e-015 -90 -90   XYZ
    dof ry
    limits (-180.0 0.0)
  end
  begin
     id 28
     name rhand
     direction -1 -4.49e-011 1.80099e-026   
     length 0.743862   
     axis -1.14882e-014 -90 -90   XYZ
    dof rx rz
    limits (-90.0 90.0)
           (-45.0 45.0)
  end
  begin
     id 29
     name rfingers
     direction -1 -4.49009e-011 3.6023e-026   
     length 0.599721   
     axis -2.29769e-014 -90 -90   XYZ
    dof rx
    limits (0.0 90.0)
  end
  begin
     id 30
     name rthumb
     direction -0.707107 -6.35025e-011 0.707107   
     length 0.861083   
     axis -90 -45 -5.37419e-014   XYZ
    dof rx rz
    limits (-45.0 45.0)
           (-45.0 45.0)
  end
:hierarchy
  begin
    root lhipjoint rhipjoint lowerback
    lhipjoint lfemur
    lfemur ltibia
    ltibia lfoot
    lfoot ltoes
    rhipjoint rfemur
    rfemur rtibia
    rtibia rfoot
    rfoot rtoes
    lowerback upperback
    upperback thorax
    thorax lowerneck lclavicle rclavicle
    lowerneck upperneck
    upperneck head
    lclavicle lhumerus
    lhumerus lradius
    lradius lwrist
    lwrist lhand lthumb
    lhand lfingers
    rclavicle rhumerus
    rhumerus rradius
    rradius rwrist
    rwrist rhand rthumb
    rhand rfingers
  end

#!OML:ASF H:\Martial Arts Walks\Project 1\Capture day 1\Session 1\male.ASF
:FULLY-SPECIFIED
:DEGREES
206
root -2.04025 14.3136 -35.585 4.14571 -24.8573 -12.1684
lowerback 16.7319 4.67493 5.06128
upperback 1.2608 7.32015 2.74237
thorax -7.72149 3.39707 -1.56554
lowerneck -3.32475 -0.587071 -3.05824
upperneck 1.75875 -0.787525 5.29499
head 1.16025 -0.336586 2.18447
rclavicle -5.71506e-014 7.55382e-015
rhumerus -26.6842 33.7926 -78.6744
rradius 68.7884
rwrist 17.3009
rhand -19.8557 -38.7653
rfingers 7.12502
rthumb 6.47911 -68.6461
lclavicle -5.71506e-014 7.55382e-015
lhumerus -13.9762 -13.6548 78.931
lradius 54.4064
lwrist 2.46605
lhand -27.5112 18.9231
lfingers 7.12502
lthumb -0.913804 48.9009
rfemur 7.3821 -4.75793 16.1684
rtibia 47.1774
rfoot -30.3888 -29.4713
rtoes -29.407
lfemur -57.1345 23.5129 -3.60081
ltibia 68.9237
lfoot -7.27749 -1.28897
ltoes -0.733486
207
root -2.0412 14.3055 -35.5692 4.10234 -24.9941 -12.0473
lowerback 16.7883 4.72651 4.94166
upperback 1.21314 7.37073 2.70605
thorax -7.81186 3.42107 -1.55754
lowerneck -3.37025 -0.567199 -3.08138
upperneck 1.87318 -0.764122 5.32576
head 1.20415 -0.323152 2.20025
rclavicle -3.13086e-014 3.57812e-015
rhumerus -27.1517 33.6593 -78.7458
rradius 69.1134
rwrist 17.2709
rhand -19.7458 -38.9535
rfingers 7.12502
rthumb 6.58519 -68.8311
lclavicle -3.13086e-014 3.57812e-015
lhumerus -14.0623 -13.6578 78.992
lradius 54.4027
lwrist 2.31799
lhand -27.497 19.075
lfingers 7.12502
lthumb -0.900126 49.0528
rfemur 7.43601 -4.79732 15.9776
rtibia 47.1235
rfoot -30.8995 -29.3579
rtoes -28.6947
lfemur -57.2608 23.8951 -3.83573
ltibia 69.1879
lfoot -7.18252 -1.35759
ltoes -0.729215
208
root -2.04089 14.2967 -35.5545 4.0892 -25.1261 -11.9862
lowerback 16.8321 4.75833 4.88062
upperback 1.17382 7.40585 2.6884
thorax -7.88238 3.43671 -1.55684
lowerneck -3.38155 -0.546617 -3.08604
upperneck 1.9225 -0.737532 5.30972
head 1.2205 -0.309634 2.19675
rclavicle -2.65378e-014 -1.05356e-014
rhumerus -27.5416 33.572 -78.7941
rradius 69.3882
rwrist 17.1613
rhand -19.5883 -39.1164
rfingers 7.12502
rthumb 6.73722 -68.9892
lclavicle -2.65378e-014 -1.05356e-014
lhumerus -14.1287 -13.592 79.0393
lradius 54.3748
lwrist 2.18766
lhand -27.4786 18.9532
lfingers 7.12502
lthumb -0.882315 48.9312
rfemur 7.4485 -4.94063 15.8158
rtibia 47.1153
rfoot -31.0627 -29.5411
rtoes -28.4634
lfemur -57.4222 24.2769 -4.00845
ltibia 69.4717
lfoot -7.06583 -1.46454
ltoes -0.871358
209
root -2.03906 14.2838 -35.5468 4.18196 -25.2138 -12.0941
lowerback 16.9258 4.78178 4.96874
upperback 1.13963 7.46269 2.6996
thorax -7.95914 3.45727 -1.6161
lowerneck -3.48911 -0.552375 -3.05755
upperneck 1.92911 -0.74337 5.26331
head 1.24101 -0.31155 2.17657
rclavicle 6.43565e-014 -1.05356e-014
rhumerus -27.8362 33.3804 -78.8199
rradius 69.6509
rwrist 17.0873
rhand -19.623 -39.185
rfingers 7.12502
rthumb 6.7038 -69.0589
lclavicle 6.43565e-014 -1.05356e-014
lhumerus -14.1183 -13.5833 79.0629
lradius 54.374
lwrist 2.08624
lhand -27.4586 18.7358
lfingers 7.12502
lthumb -0.862993 48.7138
rfemur 7.36233 -5.04773 15.8816
rtibia 47.1738
rfoot -31.4355 -29.5502
rtoes -27.8752
lfemur -57.6967 24.6257 -4.0162
ltibia 69.7735
lfoot -6.90443 -1.60192
ltoes -0.926112
210
root -2.0381 14.2733 -35.5359 4.17421 -25.38 -12.0705
lowerback 17.0065 4.82736 4.92379
upperback 1.13893 7.51846 2.6856
thorax -8.00546 3.48325 -1.62639
lowerneck -3.53902 -0.538559 -3.05336
upperneck 1.87325 -0.721273 5.23503
head 1.23061 -0.300669 2.16673
rclavicle -6.16232e-014 -3.47873e-014
rhumerus -28.0804 33.2437 -78.8259
rradius 69.8846
rwrist 17.0226
rhand -19.9839 -38.6105
rfingers 7.12502
rthumb 6.35538 -68.4952
lclavicle -6.16232e-014 -3.47873e-014
lhumerus -14.1387 -13.5012 79.0783
lradius 54.4024
lwrist 1.99386
lhand -27.5769 18.7334
lfingers 7.12502
lthumb -0.977238 48.7109
rfemur 7.32153 -5.13773 15.7679
rtibia 47.2824
rfoot -31.8017 -29.4877
rtoes -27.2628
lfemur -57.8545 25.0193 -4.12416
ltibia 70.0769
lfoot -6.74699 -1.68837
ltoes -1.01244
211
root -2.0372 14.2637 -35.5281 4.19399 -25.5548 -12.0816
lowerback 17.1466 4.88534 4.87924
upperback 1.11016 7.59833 2.69138
thorax -8.117 3.51807 -1.62878
lowerneck -3.55331 -0.526262 -3.0941
upperneck 1.79698 -0.700236 5.24878
head 1.20838 -0.290625 2.17862
rclavicle -2.48978e-014 1.55052e-014
rhumerus -28.4292 33.0899 -78.8165
rradius 70.2071
rwrist 16.99
rhand -19.8817 -38.6454
rfingers 7.12502
rthumb 6.45405 -68.5271
lclavicle -2.48978e-014 1.55052e-014
lhumerus -14.1968 -13.4858 79.1022
lradius 54.4676
lwrist 2.01327
lhand -27.584 18.8999
lfingers 7.12502
lthumb -0.984103 48.8774
rfemur 7.18762 -5.23095 15.7086
rtibia 47.4438
rfoot -31.826 -29.7192
rtoes -26.9774
lfemur -58.0568 25.4306 -4.21141
ltibia 70.3849
lfoot -6.51169 -1.75618
ltoes -1.06217
212
root -2.03599 14.2537 -35.5225 4.18115 -25.7291 -12.0667
lowerback 17.2894 4.94047 4.82064
upperback 1.09372 7.67028 2.6911
thorax -8.21805 3.54996 -1.62809
lowerneck -3.46913 -0.522871 -3.09755
upperneck 1.64724 -0.690687 5.20861
head 1.1451 -0.288647 2.16483
rclavicle 7.25564e-014 9.34288e-015
rhumerus -28.7022 32.9455 -78.7846
rradius 70.4707
rwrist 16.9979
rhand -19.9066 -38.8937
rfingers 7.12502
rthumb 6.43002 -68.7761
lclavicle 7.25564e-014 9.34288e-015
lhumerus -14.268 -13.4542 79.1207
lradius 54.5602
lwrist 2.07996
lhand -27.4928 19.0182
lfingers 7.12502
lthumb -0.896065 48.9961
rfemur 7.08299 -5.23868 15.6408
rtibia 47.6255
rfoot -32.2914 -29.5243
rtoes -26.1316
lfemur -58.2363 25.8266 -4.33122
ltibia 70.6747
lfoot -6.30113 -1.73461
ltoes -0.895802
213
root -2.03508 14.2447 -35.516 4.14175 -25.8854 -12.0375
lowerback 17.4511 4.98116 4.76952
upperback 1.09726 7.72252 2.67444
thorax -8.30535 3.57232 -1.64538
lowerneck -3.44921 -0.502298 -3.08483
upperneck 1.51633 -0.65857 5.1738
head 1.0981 -0.274198 2.15074
rclavicle -6.69407e-014 1.03368e-014
rhumerus -28.917 32.7332 -78.7869
rradius 70.7035
rwrist 17.0625
rhand -19.7532 -38.8386
rfingers 7.12502
rthumb 6.5781 -68.7164
lclavicle -6.69407e-014 1.03368e-014
lhumerus -14.3068 -13.409 79.1024
lradius 54.6498
lwrist 2.20177
lhand -27.4739 19.0558
lfingers 7.12502
lthumb -0.87778 49.0338
rfemur 7.01747 -5.23615 15.5495
rtibia 47.8044
rfoot -32.5095 -29.4887
rtoes -25.8539
lfemur -58.4084 26.2283 -4.49704
ltibia 70.9547
lfoot -6.2209 -1.6272
ltoes 0.567076
